<svg version="1.0" xmlns="http://www.w3.org/2000/svg" width="682.667" height="682.667" viewBox="0 0 512 512"><path d="M311.9 64.5c-5.3 1.4-15.2 6.3-21.8 10.7-5.4 3.7-18.4 13-19.1 13.8-.3.3-3 2.5-6 5-35.5 29-97.4 89.5-120.6 117.8-1 1.3-2.7 3.3-3.8 4.5-4.3 5-11.6 17.1-12.2 20.3-1.6 8.4 7.1 19.5 23.6 30.5 9.3 6.2 67.7 39.9 69.1 39.9 1.5 0 1 3.3-2 12-4.4 12.9-17.6 46.3-24.6 62.5-.7 1.6-2.9 7.7-5 13.5-2 5.8-4 11.6-4.6 13-1.8 5-4.6 19.6-4.4 24 .2 9.8 4.7 14.5 14.9 15.6 7.3.8 12.2-1 24.1-8.9 10.7-7.1 19-13.5 33.9-26.2 3.9-3.3 8.7-7.3 10.6-8.9 1.9-1.6 6-5.1 9-7.9 3-2.7 10-9.1 15.5-14.1s20.8-19.8 34-32.9c20.8-20.7 27.5-27.8 40.4-42.5 6-6.9 15.1-19.3 18.1-24.5 2.7-4.9 3.1-6.4 2.6-9.8-1.7-10.5-9.9-18.9-31.9-32.7-5.4-3.4-10-6.2-10.2-6.2-.2 0-2.8-1.4-5.7-3.1-2.9-1.8-7.8-4.6-10.8-6.2-3-1.7-6.8-3.8-8.5-4.8-1.6-1-5-2.9-7.5-4.2-2.5-1.4-7-3.9-10-5.6-3-1.8-6.3-3.5-7.2-3.8-2.4-.7-2.3-2.5 1.1-12.4 3.1-9.1 14.6-38.8 17.9-46 9.5-21.1 21.9-60.9 21.7-70-.1-9.7-9.5-15.3-20.6-12.4z"/></svg>